<?xml version="1.0" encoding="UTF-8" standalone="no"?>
<!DOCTYPE svg PUBLIC "-//W3C//DTD SVG 1.1//EN"
 "http://www.w3.org/Graphics/SVG/1.1/DTD/svg11.dtd">
<!-- Generated by graphviz version 14.1.1 (20251213.1925)
 -->
<!-- Title: InheritanceTree Pages: 1 -->
<svg width="345pt" height="213pt"
 viewBox="0.00 0.00 345.00 213.00" xmlns="http://www.w3.org/2000/svg" xmlns:xlink="http://www.w3.org/1999/xlink">
<g id="graph0" class="graph" transform="scale(1 1) rotate(0) translate(4 208.5)">
<title>InheritanceTree</title>
<polygon fill="white" stroke="none" points="-4,4 -4,-208.5 340.5,-208.5 340.5,4 -4,4"/>
<text xml:space="preserve" text-anchor="middle" x="168.25" y="-7.2" font-family="Times New Roman,serif" font-size="14.00">simple_hash &#45; Inheritance Hierarchy</text>
<!-- SIMPLE_HASH -->
<g id="node1" class="node">
<title>SIMPLE_HASH</title>
<path fill="none" stroke="black" d="M96.25,-60.5C96.25,-60.5 12,-60.5 12,-60.5 6,-60.5 0,-54.5 0,-48.5 0,-48.5 0,-36.5 0,-36.5 0,-30.5 6,-24.5 12,-24.5 12,-24.5 96.25,-24.5 96.25,-24.5 102.25,-24.5 108.25,-30.5 108.25,-36.5 108.25,-36.5 108.25,-48.5 108.25,-48.5 108.25,-54.5 102.25,-60.5 96.25,-60.5"/>
<text xml:space="preserve" text-anchor="middle" x="54.12" y="-37.45" font-family="Times New Roman,serif" font-size="14.00">SIMPLE_HASH</text>
</g>
<!-- ANY -->
<g id="node2" class="node">
<title>ANY</title>
<path fill="none" stroke="black" d="M291.38,-60.5C291.38,-60.5 261.38,-60.5 261.38,-60.5 255.38,-60.5 249.38,-54.5 249.38,-48.5 249.38,-48.5 249.38,-36.5 249.38,-36.5 249.38,-30.5 255.38,-24.5 261.38,-24.5 261.38,-24.5 291.38,-24.5 291.38,-24.5 297.38,-24.5 303.38,-30.5 303.38,-36.5 303.38,-36.5 303.38,-48.5 303.38,-48.5 303.38,-54.5 297.38,-60.5 291.38,-60.5"/>
<text xml:space="preserve" text-anchor="middle" x="276.38" y="-37.45" font-family="Times New Roman,serif" font-size="14.00">ANY</text>
</g>
<!-- SIMPLE_HASH&#45;&gt;ANY -->
<g id="edge1" class="edge">
<title>SIMPLE_HASH&#45;&gt;ANY</title>
<path fill="none" stroke="black" d="M108.49,-42.5C108.49,-42.5 237.38,-42.5 237.38,-42.5"/>
<polygon fill="none" stroke="black" points="237.38,-46 247.38,-42.5 237.38,-39 237.38,-46"/>
</g>
<!-- LIB_TESTS -->
<g id="node3" class="node">
<title>LIB_TESTS</title>
<path fill="none" stroke="black" d="M84.25,-132.5C84.25,-132.5 24,-132.5 24,-132.5 18,-132.5 12,-126.5 12,-120.5 12,-120.5 12,-108.5 12,-108.5 12,-102.5 18,-96.5 24,-96.5 24,-96.5 84.25,-96.5 84.25,-96.5 90.25,-96.5 96.25,-102.5 96.25,-108.5 96.25,-108.5 96.25,-120.5 96.25,-120.5 96.25,-126.5 90.25,-132.5 84.25,-132.5"/>
<text xml:space="preserve" text-anchor="middle" x="54.12" y="-109.45" font-family="Times New Roman,serif" font-size="14.00">LIB_TESTS</text>
</g>
<!-- TEST_SET_BASE -->
<g id="node4" class="node">
<title>TEST_SET_BASE</title>
<path fill="none" stroke="black" d="M324.5,-132.5C324.5,-132.5 228.25,-132.5 228.25,-132.5 222.25,-132.5 216.25,-126.5 216.25,-120.5 216.25,-120.5 216.25,-108.5 216.25,-108.5 216.25,-102.5 222.25,-96.5 228.25,-96.5 228.25,-96.5 324.5,-96.5 324.5,-96.5 330.5,-96.5 336.5,-102.5 336.5,-108.5 336.5,-108.5 336.5,-120.5 336.5,-120.5 336.5,-126.5 330.5,-132.5 324.5,-132.5"/>
<text xml:space="preserve" text-anchor="middle" x="276.38" y="-109.45" font-family="Times New Roman,serif" font-size="14.00">TEST_SET_BASE</text>
</g>
<!-- LIB_TESTS&#45;&gt;TEST_SET_BASE -->
<g id="edge2" class="edge">
<title>LIB_TESTS&#45;&gt;TEST_SET_BASE</title>
<path fill="none" stroke="black" d="M96.71,-114.5C96.71,-114.5 204.36,-114.5 204.36,-114.5"/>
<polygon fill="none" stroke="black" points="204.36,-118 214.36,-114.5 204.36,-111 204.36,-118"/>
</g>
<!-- TEST_APP -->
<g id="node5" class="node">
<title>TEST_APP</title>
<path fill="none" stroke="black" d="M82,-204.5C82,-204.5 26.25,-204.5 26.25,-204.5 20.25,-204.5 14.25,-198.5 14.25,-192.5 14.25,-192.5 14.25,-180.5 14.25,-180.5 14.25,-174.5 20.25,-168.5 26.25,-168.5 26.25,-168.5 82,-168.5 82,-168.5 88,-168.5 94,-174.5 94,-180.5 94,-180.5 94,-192.5 94,-192.5 94,-198.5 88,-204.5 82,-204.5"/>
<text xml:space="preserve" text-anchor="middle" x="54.12" y="-181.45" font-family="Times New Roman,serif" font-size="14.00">TEST_APP</text>
</g>
</g>
</svg>
