<?xml version="1.0" encoding="UTF-8" standalone="no"?>
<!DOCTYPE svg PUBLIC "-//W3C//DTD SVG 1.1//EN"
 "http://www.w3.org/Graphics/SVG/1.1/DTD/svg11.dtd">
<!-- Generated by graphviz version 14.1.1 (20251213.1925)
 -->
<!-- Title: ContractCoverage Pages: 1 -->
<svg width="764pt" height="647pt"
 viewBox="48.00 48.00 716.00 599.00" xmlns="http://www.w3.org/2000/svg" xmlns:xlink="http://www.w3.org/1999/xlink">
<g id="graph0" class="graph" transform="scale(1.33333 1.33333) rotate(0) translate(40 445.12)">
<title>ContractCoverage</title>
<polygon fill="white" stroke="none" points="-4,4 -4,-409.12 496.69,-409.12 496.69,4 -4,4"/>
<text xml:space="preserve" text-anchor="middle" x="246.34" y="-391.62" font-family="Times New Roman,serif" font-size="10.00">simple_hash &#45; Contract Coverage</text>
<g id="clust1" class="cluster">
<title>cluster_SIMPLE_HASH</title>
<polygon fill="white" stroke="black" points="0,-39.87 0,-280.38 234,-280.38 234,-39.87 0,-39.87"/>
<text xml:space="preserve" text-anchor="middle" x="117" y="-263.07" font-family="Times New Roman,serif" font-size="14.00">SIMPLE_HASH</text>
</g>
<g id="clust2" class="cluster">
<title>cluster_LIB_TESTS</title>
<polygon fill="white" stroke="black" points="139.25,-319.88 139.25,-380.38 234.75,-380.38 234.75,-319.88 139.25,-319.88"/>
<text xml:space="preserve" text-anchor="middle" x="187" y="-363.07" font-family="Times New Roman,serif" font-size="14.00">LIB_TESTS</text>
</g>
<g id="clust3" class="cluster">
<title>cluster_TEST_APP</title>
<polygon fill="white" stroke="black" points="279.5,-240.37 279.5,-385.88 418.5,-385.88 418.5,-240.37 279.5,-240.37"/>
<text xml:space="preserve" text-anchor="middle" x="349" y="-368.57" font-family="Times New Roman,serif" font-size="14.00">TEST_APP</text>
</g>
<g id="clust4" class="cluster">
<title>cluster_legend</title>
<polygon fill="lightyellow" stroke="black" points="279.31,0 279.31,-188.25 492.69,-188.25 492.69,0 279.31,0"/>
<text xml:space="preserve" text-anchor="middle" x="386" y="-174.75" font-family="Times New Roman,serif" font-size="10.00">Legend</text>
</g>
<!-- SIMPLE_HASH_default_create -->
<g id="node1" class="node">
<title>SIMPLE_HASH_default_create</title>
<polygon fill="lightcoral" stroke="black" points="114.88,-135.87 41.13,-135.87 41.13,-99.87 114.88,-99.87 114.88,-135.87"/>
<text xml:space="preserve" text-anchor="middle" x="78" y="-114" font-family="Times New Roman,serif" font-size="10.00">default_create</text>
</g>
<!-- SIMPLE_HASH_make -->
<g id="node2" class="node">
<title>SIMPLE_HASH_make</title>
<polygon fill="khaki" stroke="black" points="234,-255.87 180,-255.87 180,-219.87 234,-219.87 234,-255.87"/>
<text xml:space="preserve" text-anchor="middle" x="207" y="-234" font-family="Times New Roman,serif" font-size="10.00">make</text>
</g>
<!-- SIMPLE_HASH_sha1 -->
<g id="node3" class="node">
<title>SIMPLE_HASH_sha1</title>
<polygon fill="lightgray" stroke="black" points="54,-75.87 0,-75.87 0,-39.87 54,-39.87 54,-75.87"/>
<text xml:space="preserve" text-anchor="middle" x="27" y="-54" font-family="Times New Roman,serif" font-size="10.00">sha1</text>
</g>
<!-- SIMPLE_HASH_l_bytes -->
<g id="node4" class="node">
<title>SIMPLE_HASH_l_bytes</title>
<polygon fill="khaki" stroke="black" points="192,-105.87 138,-105.87 138,-69.87 192,-69.87 192,-105.87"/>
<text xml:space="preserve" text-anchor="middle" x="165" y="-84" font-family="Times New Roman,serif" font-size="10.00">l_bytes</text>
</g>
<!-- SIMPLE_HASH_deterministic -->
<g id="node5" class="node">
<title>SIMPLE_HASH_deterministic</title>
<polygon fill="lightgray" stroke="black" points="188.63,-195.87 119.38,-195.87 119.38,-159.87 188.63,-159.87 188.63,-195.87"/>
<text xml:space="preserve" text-anchor="middle" x="154" y="-174" font-family="Times New Roman,serif" font-size="10.00">deterministic</text>
</g>
<!-- SIMPLE_HASH_same_string -->
<g id="node6" class="node">
<title>SIMPLE_HASH_same_string</title>
<polygon fill="lightgray" stroke="black" points="100.38,-207.88 35.63,-207.88 35.63,-171.88 100.38,-171.88 100.38,-207.88"/>
<text xml:space="preserve" text-anchor="middle" x="68" y="-186" font-family="Times New Roman,serif" font-size="10.00">same_string</text>
</g>
<!-- LIB_TESTS_test_sha256_empty -->
<g id="node7" class="node">
<title>LIB_TESTS_test_sha256_empty</title>
<polygon fill="lightgray" stroke="black" points="234.75,-355.88 139.25,-355.88 139.25,-319.88 234.75,-319.88 234.75,-355.88"/>
<text xml:space="preserve" text-anchor="middle" x="187" y="-334" font-family="Times New Roman,serif" font-size="10.00">test_sha256_empty</text>
</g>
<!-- TEST_APP_make -->
<g id="node8" class="node">
<title>TEST_APP_make</title>
<polygon fill="lightcoral" stroke="black" points="418.5,-276.37 364.5,-276.37 364.5,-240.37 418.5,-240.37 418.5,-276.37"/>
<text xml:space="preserve" text-anchor="middle" x="391.5" y="-254.5" font-family="Times New Roman,serif" font-size="10.00">make</text>
</g>
<!-- TEST_APP_passed -->
<g id="node9" class="node">
<title>TEST_APP_passed</title>
<polygon fill="lightgray" stroke="black" points="343.5,-301.37 289.5,-301.37 289.5,-265.37 343.5,-265.37 343.5,-301.37"/>
<text xml:space="preserve" text-anchor="middle" x="316.5" y="-279.5" font-family="Times New Roman,serif" font-size="10.00">passed</text>
</g>
<!-- TEST_APP_failed -->
<g id="node10" class="node">
<title>TEST_APP_failed</title>
<polygon fill="lightgray" stroke="black" points="408.5,-356.37 354.5,-356.37 354.5,-320.37 408.5,-320.37 408.5,-356.37"/>
<text xml:space="preserve" text-anchor="middle" x="381.5" y="-334.5" font-family="Times New Roman,serif" font-size="10.00">failed</text>
</g>
<!-- TEST_APP_run_test -->
<g id="node11" class="node">
<title>TEST_APP_run_test</title>
<polygon fill="lightcoral" stroke="black" points="333.5,-361.37 279.5,-361.37 279.5,-325.37 333.5,-325.37 333.5,-361.37"/>
<text xml:space="preserve" text-anchor="middle" x="306.5" y="-339.5" font-family="Times New Roman,serif" font-size="10.00">run_test</text>
</g>
<!-- legend_full -->
<g id="node12" class="node">
<title>legend_full</title>
<polygon fill="palegreen" stroke="black" points="482.19,-105 367.94,-105 367.94,-64 482.19,-64 482.19,-105"/>
<text xml:space="preserve" text-anchor="middle" x="425.06" y="-87.7" font-family="Times New Roman,serif" font-size="14.00">Full Contract</text>
<text xml:space="preserve" text-anchor="middle" x="425.06" y="-71.2" font-family="Times New Roman,serif" font-size="14.00">(require + ensure)</text>
</g>
<!-- legend_partial -->
<g id="node13" class="node">
<title>legend_partial</title>
<polygon fill="khaki" stroke="black" points="492.69,-41 375.44,-41 375.44,0 492.69,0 492.69,-41"/>
<text xml:space="preserve" text-anchor="middle" x="434.06" y="-23.7" font-family="Times New Roman,serif" font-size="14.00">Partial Contract</text>
<text xml:space="preserve" text-anchor="middle" x="434.06" y="-7.2" font-family="Times New Roman,serif" font-size="14.00">(require or ensure)</text>
</g>
<!-- legend_none -->
<g id="node14" class="node">
<title>legend_none</title>
<polygon fill="lightcoral" stroke="black" points="474.44,-163.5 391.69,-163.5 391.69,-127.5 474.44,-127.5 474.44,-163.5"/>
<text xml:space="preserve" text-anchor="middle" x="433.06" y="-140.45" font-family="Times New Roman,serif" font-size="14.00">No Contract</text>
</g>
<!-- legend_attr -->
<g id="node15" class="node">
<title>legend_attr</title>
<polygon fill="lightgray" stroke="black" points="368.44,-169 303.69,-169 303.69,-128 368.44,-128 368.44,-169"/>
<text xml:space="preserve" text-anchor="middle" x="336.06" y="-151.7" font-family="Times New Roman,serif" font-size="14.00">Attribute</text>
<text xml:space="preserve" text-anchor="middle" x="336.06" y="-135.2" font-family="Times New Roman,serif" font-size="14.00">(n/a)</text>
</g>
<!-- legend_stats -->
<g id="node16" class="node">
<title>legend_stats</title>
<polygon fill="white" stroke="black" points="338.81,-107 279.31,-107 279.31,0 344.81,0 344.81,-101 338.81,-107"/>
<polyline fill="none" stroke="black" points="338.81,-107 338.81,-101"/>
<polyline fill="none" stroke="black" points="344.81,-101 338.81,-101"/>
<text xml:space="preserve" text-anchor="middle" x="312.06" y="-89.7" font-family="Times New Roman,serif" font-size="14.00">Statistics</text>
<text xml:space="preserve" text-anchor="middle" x="312.06" y="-73.2" font-family="Times New Roman,serif" font-size="14.00">Full: 0</text>
<text xml:space="preserve" text-anchor="middle" x="312.06" y="-56.7" font-family="Times New Roman,serif" font-size="14.00">Partial: 2</text>
<text xml:space="preserve" text-anchor="middle" x="312.06" y="-40.2" font-family="Times New Roman,serif" font-size="14.00">None: 3</text>
<text xml:space="preserve" text-anchor="middle" x="312.06" y="-23.7" font-family="Times New Roman,serif" font-size="14.00">Attr: 6</text>
<text xml:space="preserve" text-anchor="middle" x="312.06" y="-7.2" font-family="Times New Roman,serif" font-size="14.00">Total: 11</text>
</g>
</g>
</svg>
